<svg width="11" height="11" viewBox="0 0 11 11" fill="none" xmlns="http://www.w3.org/2000/svg">
<path d="M4.58331 7.33333H2.29165V9.625M6.41665 3.66667H8.70831V1.375M2.10052 4.12656C2.35751 3.49051 2.78776 2.93931 3.3424 2.5356C3.89703 2.1319 4.55437 1.89178 5.23862 1.84273C5.92286 1.79369 6.60673 1.93756 7.21328 2.25803C7.81982 2.5785 8.32388 3.06283 8.66895 3.65572M8.89969 6.87366C8.64271 7.50971 8.21245 8.06091 7.65782 8.46461C7.10318 8.86832 6.44651 9.10813 5.76227 9.15718C5.07802 9.20623 4.39359 9.06237 3.78705 8.7419C3.1805 8.42143 2.67611 7.93719 2.33103 7.3443" stroke="#434343" stroke-linecap="round" stroke-linejoin="round"/>
</svg>
