<svg width="30" height="29" viewBox="0 0 30 29" fill="none" xmlns="http://www.w3.org/2000/svg">
<g clip-path="url(#clip0_1_448)">
<path d="M12.9762 14.1422L18.6875 14.1422M23.3514 15.3206L13.107 20.7441C12.189 21.2301 11.7297 21.4732 11.427 21.4033C11.1644 21.3427 10.9474 21.1595 10.8444 20.9105C10.7257 20.6233 10.8898 20.1297 11.2184 19.1439L12.7452 14.5637C12.7973 14.4073 12.8232 14.3293 12.8335 14.2493C12.8427 14.1782 12.8432 14.1064 12.834 14.0354C12.8238 13.9572 12.7983 13.8807 12.7485 13.7312L11.2182 9.14045C10.8896 8.15465 10.7255 7.66157 10.8442 7.37441C10.9472 7.12537 11.1641 6.94176 11.4267 6.88112C11.7294 6.81121 12.1889 7.05413 13.1072 7.54032L23.3516 12.9638C24.0736 13.346 24.4346 13.5373 24.5526 13.7923C24.6554 14.0143 24.6556 14.2703 24.5528 14.4924C24.4348 14.7472 24.0738 14.9383 23.3526 15.3202L23.3514 15.3206Z" stroke="#BABABA" stroke-width="2" stroke-linecap="round" stroke-linejoin="round"/>
</g>
<defs>
<clipPath id="clip0_1_448">
<rect width="20" height="20" fill="white" transform="translate(14.9706) rotate(45)"/>
</clipPath>
</defs>
</svg>
